<svg xmlns="http://www.w3.org/2000/svg" xmlns:xlink="http://www.w3.org/1999/xlink" width="186" height="43" viewBox="0 0 186 43">
    <defs>
        <path id="a" d="M0 40.064h108.147V0H0z"/>
    </defs>
    <g fill="none" fill-rule="evenodd">
        <path fill="#FFF" d="M23.49 19.892c-8.234.922-16.76 5.58-16.76 10.296 0 5.514 7.973 10.855 25.412 12.634C14.819 44.07 0 37.026 0 29.876c0-6.049 10.017-11.429 24.593-12.567l-1.103 2.583zm-7.745 11.46c0-2.77 2.224-5.026 4.978-5.026 2.748 0 4.98 2.256 4.98 5.027 0 2.773-2.232 5.018-4.98 5.018-2.754 0-4.978-2.245-4.978-5.018zm27.5-11.589l3.883 6.774c2.477 4.317 3.978 6.463 6.094 6.79 3.021-.094 5.403-1.87 5.556-3.705.374-4.38-6.248-8.176-15.532-9.859zm6.279 16.83c-3.93 0-7.397-1.976-9.976-6.488L27.841 9.684 31.914 0l10.18 17.754c11.824 1.884 20.35 6.633 19.95 12.082-.214 3.095-4.65 6.757-12.52 6.757z"/>
        <g transform="translate(77.917 2.588)">
            <mask id="b" fill="#fff">
                <use xlink:href="#a"/>
            </mask>
            <path fill="#FFF" d="M20.792 34.36l-3.125-6.312H6.648l-3.065 6.311L0 34.358 14.207 6.47l14.555 27.887-7.97.001zM8.105 25.072H16.2a656.78 656.78 0 0 1-4.106-8.249s-3.164 6.59-3.989 8.25zm71.338 1.065c0 4.938-4.915 8.488-11.343 8.488-4.22 0-7.478-1.023-9.083-1.58l-.188-7.462c.737 2.804 3.626 6.674 8.405 6.674 4.081 0 5.598-2.293 5.598-4.224 0-3.717-4.771-4.03-8.628-6.042-3.999-2.059-5.422-4.306-5.422-7.193 0-5.921 6.523-7.937 10.517-7.937 1.472 0 4.728.276 7.39 1.383l.226 6.554c-.868-2.288-3.53-5.45-7.988-5.45-3.021 0-4.535 1.739-4.535 3.44 0 2.405 2.15 3.154 6.281 4.658 4.088 1.58 8.77 2.961 8.77 8.691zM38.541 9.828V31.95s.504.075.963.075c4.726 0 7.273-1.936 7.273-5.484 0-4.513-3.558-5.665-5.973-6.405 2.415-.543 4.315-2.485 4.315-5.724 0-2.252-1.839-4.663-5.462-4.663-.646 0-1.116.079-1.116.079zM40.946 7.5c3.117 0 10.552 1.106 10.552 6.361 0 5.049-6.564 6.275-6.564 6.275s9.362.395 9.362 6.717c0 3.157-2.66 7.506-12.161 7.506H32.096V7.5h8.85zm59.23 26.86l-3.127-6.312H86.034l-3.072 6.311-3.578-.001L93.59 6.47l14.558 27.887-7.97.001zM87.49 25.072h8.096c-1.93-3.789-4.104-8.249-4.104-8.249s-3.168 6.59-3.992 8.25z" mask="url(#b)"/>
        </g>
    </g>
</svg>
