<svg xmlns="http://www.w3.org/2000/svg" width="114" height="106" viewBox="0 0 114 106">
    <g fill="none" fill-rule="evenodd">
        <path fill="#FFF" fill-rule="nonzero" stroke="#000" stroke-linecap="round" stroke-linejoin="round" stroke-width="1.1" d="M23.832 37.968h65.665v57.715H23.832zM8.995 15.44v2.195h63.58v-2.194c0-.145 0-.29.008-.434.243-4.508 3.951-8.043 8.452-8.055H17.457c-4.67.01-8.452 3.805-8.462 8.489z"/>
        <path fill="#FFF" fill-rule="nonzero" stroke="#000" stroke-linecap="round" stroke-linejoin="round" stroke-width="1.1" d="M23.832 17.635v20.33h65.664V15.442c0-.145 0-.29-.008-.434-.235-4.51-3.95-8.046-8.452-8.046s-8.217 3.536-8.452 8.046c-.008.145-.008.29-.008.434v2.194H23.832zM94.405 10.946h8.967v39.907h-8.967zM94.405 16.47h5.47M94.405 22.422h5.47M94.405 28.374h5.47M94.405 34.327h5.47M94.405 40.28h5.47M94.405 46.232h5.47"/>
        <ellipse cx="38.375" cy="27.801" fill="#B91320" fill-rule="nonzero" stroke="#000" stroke-linecap="round" stroke-linejoin="round" stroke-width="1.1" rx="6.553" ry="6.574"/>
        <path stroke="#000" stroke-linecap="round" stroke-linejoin="round" stroke-width="1.1" d="M52.321 22.461h23.673M52.321 27.563h23.673M52.321 32.666h31.224M78.538 27.563H82.7M31.976 44.346h11.837v48.257H31.976zM34.613 51.24h6.302M34.613 57.192h6.302M34.613 63.145h6.302M34.613 69.097h6.302M34.613 75.05h6.302M34.613 81.002h6.302M34.613 86.955h6.302M53.244 51.24H81.19M53.244 57.192H81.19M53.244 63.145H81.19M53.244 69.097H81.19M53.244 75.05H81.19M53.244 81.002H81.19M53.244 86.955H81.19"/>
        <ellipse cx="80.474" cy="69.739" fill="#FFF" fill-rule="nonzero" stroke="#000" stroke-linecap="round" stroke-linejoin="round" stroke-width="1.1" rx="14.026" ry="14.07"/>
        <path stroke="#000" stroke-linecap="round" stroke-linejoin="round" stroke-width="1.1" d="M111.972 99.174l-2.156 2.163a1.958 1.958 0 0 1-2.773 0l-.89-.894 4.927-4.944.892.894a1.972 1.972 0 0 1 0 2.78z"/>
        <path fill="#5A1846" fill-rule="nonzero" stroke="#000" stroke-linecap="round" stroke-linejoin="round" stroke-width="1.1" d="M111.08 95.5l-4.927 4.943-13.987-14.03a1.979 1.979 0 0 1 0-2.787l2.15-2.163c.771-.76 2.007-.76 2.778 0L111.081 95.5z"/>
        <path stroke="#000" stroke-linecap="round" stroke-linejoin="round" stroke-width="1.1" d="M88.766 81.086l2.965 2.975M91.508 78.335l2.966 2.975M68.958 68.72a11.617 11.617 0 0 1 4.616-8.28 11.544 11.544 0 0 1 9.231-2.06"/>
        <path fill="#FFF" fill-rule="nonzero" stroke="#000" stroke-linecap="round" stroke-linejoin="round" stroke-width="1.1" d="M8.897 76.473c0 .119.008.23.017.34h-.017v-.34zM17.103 76.473v.34h-.018c.009-.11.018-.221.018-.34z"/>
        <path fill="#FFF" fill-rule="nonzero" stroke="#000" stroke-linecap="round" stroke-linejoin="round" stroke-width="1.1" d="M17.103 32.092v44.381c0 .12-.009.23-.018.34A4.105 4.105 0 0 1 13 80.59a4.105 4.105 0 0 1-4.086-3.776c-.009-.11-.017-.221-.017-.34V32.091h8.206z"/>
        <path fill="#FFF" fill-rule="nonzero" stroke="#000" stroke-linecap="round" stroke-linejoin="round" stroke-width="1.1" d="M13 22.77l-4.103 9.322h8.206zM8.897 69.615h8.188M8.897 73.867h8.188M13 35.988v29.73"/>
        <path stroke="#000" stroke-linecap="round" stroke-linejoin="round" stroke-width="1.1" d="M105.815 56.629v2.163M102.495 58.022l1.527 1.532M109.223 58.128l-1.524 1.53M104.189 63.178l-1.528 1.533M109.02 64.651l-1.523-1.528M105.815 63.78v2.118M103.328 61.286h-2.164M110.466 61.286H108.3M11.94 85.76v2.163M8.62 87.153l1.528 1.532M15.349 87.26l-1.525 1.53M10.314 92.31l-1.527 1.532M15.146 93.782l-1.523-1.528M11.94 92.91v2.119M9.454 90.417H7.29M16.591 90.417h-2.165M87.053 101.867h5.903M90.004 98.938v5.858M102.079 76.473h5.903M105.03 73.543v5.859M.721 79.822h5.904M3.673 76.893v5.858M87.053 3.799h5.903M90.004.87v5.858"/>
        <path fill="#FFC30F" fill-rule="nonzero" d="M9.454 70.16h7.137v3.169H9.454z"/>
    </g>
</svg>
