<?xml version="1.0" encoding="UTF-8"?>
<svg width="350px" height="350px" viewBox="0 0 350 350" version="1.1" xmlns="http://www.w3.org/2000/svg" xmlns:xlink="http://www.w3.org/1999/xlink">
    <!-- Generator: Sketch 46.2 (44496) - http://www.bohemiancoding.com/sketch -->
    <title>Fill 1</title>
    <desc>Created with Sketch.</desc>
    <defs></defs>
    <g id="Page-1" stroke="none" stroke-width="1" fill="none" fill-rule="evenodd">
        <path d="M137.885869,171.339244 C116.458869,153.116244 95.3468688,135.162244 74.1048688,117.098244 L74.1048688,231.701244 C95.6068688,211.351244 116.638869,191.447244 137.885869,171.339244 L137.885869,171.339244 Z M275.605869,116.812244 C254.054869,135.149244 232.911869,153.138244 211.597869,171.273244 C232.967869,191.499244 254.097869,211.498244 275.605869,231.854244 L275.605869,116.812244 Z M143.731869,176.345244 C122.505869,196.470244 101.403869,216.480244 79.9258688,236.844244 L269.635869,236.844244 C248.071869,216.401244 226.942869,196.372244 205.831869,176.360244 C183.469869,194.094244 161.590869,190.740244 143.731869,176.345244 L143.731869,176.345244 Z M81.3998688,112.543244 C81.2068688,112.791244 81.0128688,113.040244 80.8188688,113.288244 C81.1678688,113.408244 81.5928688,113.437244 81.8548688,113.659244 C104.519869,132.883244 127.101869,152.207244 149.869869,171.309244 C156.902869,177.209244 165.089869,180.761244 174.530869,180.810244 C184.495869,180.863244 192.943869,176.890244 200.328869,170.674244 C222.789869,151.772244 245.104869,132.695244 267.468869,113.677244 C267.757869,113.430244 267.940869,113.059244 268.322869,112.543244 L81.3998688,112.543244 Z M349.370869,174.796244 C350.042869,270.884244 270.052869,351.751244 170.395869,349.455244 C76.6918688,347.297244 -2.2931312,269.074244 0.0508688048,170.185244 C2.2698688,76.5722437 80.5108688,-2.45275626 179.514869,0.0582437366 C273.124869,2.43224374 349.904869,79.7842437 349.370869,174.796244 L349.370869,174.796244 Z" id="Fill-1" fill="#B1061B"></path>
    </g>
</svg>