<svg xmlns="http://www.w3.org/2000/svg" width="42" height="42" viewBox="0 0 42 42">
    <g fill="none" fill-rule="evenodd">
        <path fill="#F5F5F5" fill-rule="nonzero" d="M20.96 1.401c10.8 0 19.556 8.743 19.556 19.529 0 10.785-8.756 19.528-19.557 19.528-10.8 0-19.556-8.743-19.556-19.528C1.414 10.149 10.163 1.412 20.96 1.4zm0-1.401C9.383 0 0 9.37 0 20.93c0 11.559 9.384 20.93 20.96 20.93 11.575 0 20.959-9.371 20.959-20.93C41.919 9.37 32.535 0 20.959 0z"/>
        <path stroke="#F5F5F5" stroke-width="1.4" d="M20.329 30.045V16.103a2.813 2.813 0 0 1 2.806-2.803h1.949"/>
        <path fill="#F5F5F5" fill-rule="nonzero" d="M25.517 18.9l-.358 1.401h-8.335V18.9z"/>
    </g>
</svg>
