<svg xmlns="http://www.w3.org/2000/svg" width="188" height="172" viewBox="0 0 188 172">
    <g fill="none" fill-rule="evenodd">
        <path fill="#B91320" fill-rule="nonzero" stroke="#000" stroke-linecap="round" stroke-linejoin="round" stroke-width="1.872" d="M181.86 19.409l4.392-1.785-1.776-4.32-4.393 1.784a18.75 18.75 0 0 0-7.384-7.42l1.87-4.414-4.206-1.784-1.87 4.414c-3.458-.94-7.01-1.033-10.468 0L156.25 1.47l-4.3 1.784 1.777 4.415a18.75 18.75 0 0 0-7.384 7.42l-4.393-1.88-1.776 4.227 4.393 1.879c-.935 3.381-1.028 7.044 0 10.425l-4.393 1.785 1.776 4.32 4.393-1.784a18.75 18.75 0 0 0 7.384 7.42l-1.87 4.414 4.206 1.785 1.87-4.415c3.458.94 7.01 1.033 10.468 0l1.776 4.415 4.3-1.785-1.777-4.414c3.085-1.69 5.609-4.32 7.384-7.42l4.393 1.878 1.776-4.226-4.393-1.879a19.731 19.731 0 0 0 0-10.425zm-6.356 6.105c0 .563-.094 1.22-.28 1.784-.094.282-.094.564-.188.94-.093.187-.093.375-.187.657-.093.188-.187.376-.187.564-.093.281-.28.563-.374.845-.093.282-.28.563-.467.845-.374.564-.748 1.127-1.215 1.597-.56.657-1.215 1.22-1.87 1.784a8.066 8.066 0 0 1-1.495.94c-.56.281-1.028.563-1.589.751-.187.094-.374.094-.56.188-2.15.751-4.58.845-6.824.282-.187-.094-.467-.094-.654-.188-.093 0-.093 0-.187-.094-.187 0-.28-.094-.467-.188-.187 0-.28-.094-.468-.188-6.355-2.63-9.253-9.956-6.636-16.248a12.492 12.492 0 0 1 6.636-6.669c.374-.188.842-.282 1.309-.47.56-.187 1.122-.281 1.682-.375.561-.094 1.215-.094 1.776-.094l2.43.188c.374.094.655.187 1.029.281l.747.282c.187.094.28.094.468.188l.093.094c1.496.657 2.804 1.503 3.832 2.536.468.47.841.845 1.215 1.409.561.751 1.029 1.502 1.402 2.348.374.751.655 1.503.842 2.348 0 .094.093.282.093.376.094.939.187 2.066.094 3.287z"/>
        <path fill="#FFF" fill-rule="nonzero" stroke="#000" stroke-linecap="round" stroke-linejoin="round" stroke-width="1.872" d="M51.753 29.646h106.926c2.15 0 3.833 1.691 3.833 3.851v70.442c0 2.16-1.683 3.851-3.833 3.851H51.753c-2.15 0-3.832-1.69-3.832-3.85V33.496c0-2.066 1.682-3.85 3.832-3.85z"/>
        <path fill="#FFF" fill-rule="nonzero" stroke="#000" stroke-linecap="round" stroke-linejoin="round" stroke-width="1.872" d="M52.968 35.657h104.403v66.591H52.968zM124.096 128.453a3.459 3.459 0 0 1-3.458 3.475H89.794c-1.963 0-3.458-1.503-3.552-3.475 0-1.972 1.496-3.475 3.459-3.569h30.937c1.963.094 3.458 1.597 3.458 3.569z"/>
        <path fill="#FFF" fill-rule="nonzero" stroke="#000" stroke-linecap="round" stroke-linejoin="round" stroke-width="1.872" d="M98.954 107.79h12.431v17.188H98.954zM91.85 140.851h83.092v28.646H91.85z"/>
        <path stroke="#000" stroke-linecap="round" stroke-linejoin="round" stroke-width="1.872" d="M102.319 146.486h2.804M110.73 146.486h2.898M119.236 146.486h2.804M127.742 146.486h2.804M136.247 146.486h2.804M144.66 146.486h2.897M153.165 146.486h2.897M161.67 146.486h2.804M102.319 152.122h2.804M110.73 152.122h2.898M119.236 152.122h2.804M127.742 152.122h2.804M136.247 152.122h2.804M144.66 152.122h2.897M153.165 152.122h2.897M161.67 152.122h2.804M102.319 157.85h2.804M110.73 157.85h2.898M119.236 157.85h2.804M127.742 157.85h2.804M136.247 157.85h2.804M144.66 157.85h2.897M153.165 157.85h2.897M161.67 157.85h2.804M102.319 163.486h2.804"/>
        <path stroke="#FFC30F" stroke-linecap="round" stroke-linejoin="round" stroke-width="1.872" d="M110.73 163.486h21.218"/>
        <path stroke="#000" stroke-linecap="round" stroke-linejoin="round" stroke-width="1.872" d="M136.247 163.486h2.804M144.66 163.486h2.897M153.165 163.486h2.897M161.67 163.486h2.804M174.288 117.746h10.001M179.242 112.768v9.956M30.723 10.486v4.32M24.18 13.304l2.99 3.005M37.359 13.492l-2.991 3.005M27.545 23.354l-2.991 3.005M36.985 26.265l-2.991-3.005M30.723 24.575v4.132M25.862 19.69h-4.3M39.789 19.69h-4.206M62.128 9.735h10M67.081 4.757v9.956M108.861 9.735h10.001M113.815 4.757v9.956M149.426 110.983v4.32M142.883 113.801l2.991 3.006M156.062 113.989l-2.99 3.005M146.248 123.85l-2.99 3.006M155.688 126.762l-2.99-3.005M149.426 125.072v4.132M144.566 120.188h-4.3M158.492 120.188h-4.206M103.534 73.414h-9.908V60.83c5.608 1.315 9.627 6.293 9.908 12.022v.563z"/>
        <path stroke="#000" stroke-linecap="round" stroke-linejoin="round" stroke-width="1.872" d="M103.534 73.414c0 7.138-5.795 12.962-12.899 12.962-7.103 0-12.992-5.824-12.992-12.962s5.795-12.961 12.899-12.961c.56 0 1.028 0 1.589.094l1.402.282v12.68h10v-.095z"/>
        <path fill="#FFC30F" fill-rule="nonzero" stroke="#000" stroke-linecap="round" stroke-linejoin="round" stroke-width="1.872" d="M103.534 73.414h-9.908V60.83c5.608 1.315 9.627 6.293 9.908 12.022v.563z"/>
        <path stroke="#000" stroke-linecap="round" stroke-linejoin="round" stroke-width="1.872" d="M132.789 51.06v22.354h-29.255v-.657c-.28-5.73-4.3-10.707-9.908-12.022V51.06h39.163z"/>
        <path fill="#FFF" fill-rule="nonzero" stroke="#000" stroke-linecap="round" stroke-linejoin="round" stroke-width="1.872" d="M173.821 127.514v.47-.47zM185.224 127.514v.47c-.093-.188 0-.376 0-.47z"/>
        <path fill="#FFF" fill-rule="nonzero" stroke="#000" stroke-linecap="round" stroke-linejoin="round" stroke-width="1.872" d="M185.224 66.182v61.708c-.28 3.099-2.99 5.447-6.075 5.165-2.804-.188-4.954-2.442-5.141-5.165V66.182h11.216zM179.523 53.315l-5.702 12.867h11.403z"/>
        <path stroke="#000" stroke-linecap="round" stroke-linejoin="round" stroke-width="1.872" d="M173.821 118.028h11.31M173.821 123.85h11.31M179.523 71.536v41.044"/>
        <path fill="#FFC30F" fill-rule="nonzero" d="M174.569 118.779h9.814v4.32h-9.814z"/>
        <path stroke="#000" stroke-linecap="round" stroke-linejoin="round" stroke-width="1.872" d="M13.057 96.989l.094-17.564"/>
        <path fill="#B91320" fill-rule="nonzero" stroke="#000" stroke-linecap="round" stroke-linejoin="round" stroke-width="1.872" d="M12.683 96.989h1.496c1.589 0 2.897 1.597 3.271 3.757.094.376.094.751.094 1.127l-.094 9.862c0 2.63-1.495 4.79-3.365 4.79H12.59c-1.87 0-3.365-2.16-3.365-4.79l.094-9.862c0-2.724 1.495-4.884 3.364-4.884z"/>
        <path fill="#5A1846" fill-rule="nonzero" stroke="#000" stroke-linecap="round" stroke-linejoin="round" stroke-width="1.872" d="M18.759 133.994H90.26L79.326 92.011l-45.8-9.017z"/>
        <path stroke="#000" stroke-linecap="round" stroke-linejoin="round" stroke-width="1.872" d="M33.527 82.994L1.28 76.702M104.655 96.989l-25.33-4.978"/>
        <path fill="#FFF" fill-rule="nonzero" stroke="#000" stroke-linecap="round" stroke-linejoin="round" stroke-width="1.872" d="M37.265 142.26c7.104 4.79 8.973 14.37 4.3 21.508a15.437 15.437 0 0 1-21.404 4.32c-3.552-2.442-5.982-6.198-6.636-10.425-.094-.845-.187-1.597-.187-2.442 0-8.547 6.916-15.497 15.422-15.497 1.589 0 3.178.282 4.673.751.28.094.654.282.935.376l2.897 1.409z"/>
        <path stroke="#000" stroke-linecap="round" stroke-linejoin="round" stroke-width="1.872" d="M17.357 155.127c0-6.293 5.047-11.365 11.31-11.365"/>
        <path fill="#FFF" fill-rule="nonzero" stroke="#000" stroke-linecap="round" stroke-linejoin="round" stroke-width="1.872" d="M81.569 144.514c2.617 2.911 4.112 6.762 4.3 10.707 0 8.547-6.917 15.497-15.423 15.497-8.505 0-15.422-6.95-15.422-15.497s6.917-15.497 15.422-15.497c2.898 0 5.795.845 8.225 2.348 1.028.563 2.057 1.409 2.898 2.442z"/>
        <path stroke="#000" stroke-linecap="round" stroke-linejoin="round" stroke-width="1.872" d="M59.324 155.127c0-6.293 5.047-11.365 11.31-11.365M44.65 152.497h9.533"/>
    </g>
</svg>
