<svg xmlns="http://www.w3.org/2000/svg" width="43" height="42" viewBox="0 0 43 42">
    <g fill="none" fill-rule="evenodd">
        <path stroke="#F5F5F5" stroke-linecap="round" stroke-linejoin="round" stroke-width="1.4" d="M15.115 17.5v11.295M20.723 28.797v-7.344a3.968 3.968 0 0 1 3.959-3.953 3.968 3.968 0 0 1 3.959 3.953v7.344M20.723 17.5v7.16"/>
        <path fill="#F5F5F5" fill-rule="nonzero" d="M15.116 13.3a.701.701 0 1 0-.001 1.402.701.701 0 0 0 0-1.402z"/>
        <path fill="#F5F5F5" fill-rule="nonzero" d="M21.354 1.401c10.8 0 19.556 8.743 19.556 19.529 0 10.785-8.756 19.528-19.556 19.528S1.798 31.715 1.798 20.93c.01-10.781 8.76-19.518 19.556-19.529zm0-1.401C9.778 0 .394 9.37.394 20.93c0 11.559 9.384 20.93 20.96 20.93 11.575 0 20.96-9.371 20.96-20.93C42.313 9.37 32.928 0 21.353 0z"/>
    </g>
</svg>
