<svg xmlns="http://www.w3.org/2000/svg" width="45" height="45" viewBox="0 0 45 45">
    <g fill="none" fill-rule="nonzero">
        <path fill="#0E76A8" d="M22.447 0c12.399 0 22.448 10.05 22.448 22.448 0 12.396-10.05 22.447-22.448 22.447S0 34.845 0 22.448C0 10.05 10.05 0 22.447 0z"/>
        <path fill="#FFF" d="M12.65 30.843h4.202v-14.01H12.65v14.01zm16.375-14.496c-2.04 0-3.866.745-5.16 2.39v-1.95h-4.22v14.056h4.22v-7.601c0-1.607 1.471-3.174 3.315-3.174 1.843 0 2.298 1.567 2.298 3.134v7.64h4.203V22.89c0-5.524-2.615-6.543-4.656-6.543zm-14.294-.914a2.105 2.105 0 1 0-.001-4.21 2.105 2.105 0 0 0 .001 4.21z"/>
    </g>
</svg>
