<svg xmlns="http://www.w3.org/2000/svg" width="123" height="103" viewBox="0 0 123 103">
    <g fill="none" fill-rule="evenodd" stroke="#000" stroke-linecap="round" stroke-linejoin="round" stroke-width="1.2" transform="translate(1 1)">
        <path fill="#FFF" fill-rule="nonzero" d="M72.355 86.235c.12-.54.12-1.139.06-1.678v-.12c0-.18-.06-.36-.06-.54-.301-1.498-.723-2.877-1.387-4.256-.06-.18-.12-.3-.24-.48-.785-1.738-1.75-3.476-2.714-5.095l-.362-.539c-.362-.54-.724-1.139-1.085-1.678l-.362-.54c-.482-.72-.965-1.439-1.508-2.218-.12-.24-.301-.42-.482-.66a155.64 155.64 0 0 0-4.522-5.934c-.181-.24-.362-.48-.543-.659-2.412-2.997-5.125-6.054-8.08-9.231-.24-.24-.482-.48-.663-.72-.422-.42-.783-.839-1.206-1.258-.24-.24-.422-.48-.663-.72-.301-.3-.603-.659-.965-.959l-.723-.719-.724-.72c-16.46-16.604-32.981-27.453-38.95-26.195 16.038-8.691 35.815-6.294 49.26 5.875.182.12.363.3.483.48.241.24.543.479.784.779l.06.06 7.357 7.313A42.295 42.295 0 0 1 75.67 53.266c3.437 10.97 2.231 22.839-3.316 32.969z"/>
        <path fill="#5A1846" fill-rule="nonzero" d="M72.355 86.235c-.12.54-.362 1.019-.723 1.379l-.121.12c-2.11 1.798-7.296.18-14.049-3.957-5.849-3.536-12.964-8.991-20.26-15.765l-7.778-7.553C12.542 43.256 2.11 26.532 5.547 22.216l.181-.18c.422-.42.905-.66 1.508-.72 5.969-1.258 22.43 9.591 39.01 26.076l.724.72.724.718c.302.3.603.66.965.96.241.24.422.479.663.719.422.42.784.839 1.206 1.259.241.24.482.48.663.719a152.248 152.248 0 0 1 8.08 9.231c.18.24.362.48.543.66 1.688 2.038 3.195 4.076 4.522 5.934.18.24.301.42.482.66.543.779 1.025 1.498 1.507 2.217l.362.54c.362.54.724 1.139 1.086 1.678l.361.54c1.025 1.618 1.93 3.356 2.714 5.095.06.18.12.3.24.48a21.939 21.939 0 0 1 1.388 4.255c0 .18.06.36.06.54v.12c0 .659-.06 1.199-.18 1.798z"/>
        <path d="M48.538 49.79L37.444 60.818"/>
        <ellipse cx="33.223" cy="64.296" fill="#C70039" fill-rule="nonzero" rx="5.427" ry="5.395"/>
        <path fill="#FFF" fill-rule="nonzero" d="M88.514 44.634v1.02h-5.366l-.965 7.552-.06.24-.844 6.474-.06.42-4.884 37.404H57.462V83.657c6.813 4.136 11.939 5.755 14.049 3.957.06-.06.12-.06.12-.12.362-.36.603-.84.724-1.379 4.402-7.972 6.09-17.204 4.824-26.255h3.98l.904-6.714H75.67A42.295 42.295 0 0 0 65.12 35.703l-7.357-7.313-.06-.06c-.241-.24-.543-.48-.784-.78H71.39c9.467.12 17.124 7.733 17.124 17.084z"/>
        <path fill="#FFF" fill-rule="nonzero" d="M88.514 45.713v.6l-1.025-.6z"/>
        <path d="M96.956 53.386h-.12l.06-.12c0 .06 0 .12.06.12z"/>
        <path fill="#FFF" fill-rule="nonzero" d="M96.956 53.206l-.06.12c0-.06-.06-.06-.06-.12h.12z"/>
        <path fill="#FFC30F" fill-rule="nonzero" d="M103.588 56.563a3.348 3.348 0 0 1-2.412 3.237h-.06c-.301.12-.603.12-.965.12H89.48c-1.809 0-3.316-1.439-3.437-3.237v-.18a3.425 3.425 0 0 1 3.437-3.417h10.672c1.93.12 3.437 1.619 3.437 3.477zM82.123 53.266l-.904 6.714h-3.98c-.301-2.278-.784-4.556-1.507-6.714h6.391z"/>
        <path d="M92.916 101.4H119.145M85.017 101.4h3.196M56.437 15.262h4.462l-4.703 4.616h4.703M66.265 10.227h4.04l-4.16 4.136h4.823M72.476.636h3.678l-4.221 4.196h4.22M7.175 51.947a25.207 25.207 0 0 1-2.894-3.236c-2.05-2.638-3.377-5.755-3.98-9.052M9.587 48.77c-.724-.659-1.387-1.438-1.99-2.217-1.387-1.859-2.351-3.957-2.773-6.235"/>
        <path fill="#EDEEF5" fill-rule="nonzero" d="M89.84 22.156s-.783-7.134 7.779-4.796c0 0 .302-3.836 6.331-4.376 6.03-.54 7.175 5.575 7.175 5.575s5.608-1.978 6.331 3.597H89.841zM15.436 5.791s-.483-4.316 4.703-2.937c0 0 .18-2.338 3.859-2.697 3.678-.36 4.341 3.416 4.341 3.416s3.437-1.199 3.859 2.218H15.436z"/>
        <path d="M44.92.636h5.608M8.743 72.568h5.607M2.713 84.557h5.608M111.246 30.608h5.607M99.187 36.602h5.607M38.65 4.832h5.607M30.45 80.42v2.698M26.289 82.159l1.93 1.918M34.79 82.279l-1.929 1.918M28.4 88.633l-1.93 1.918M34.49 90.431l-1.87-1.858M30.45 89.352v2.697M27.314 86.235h-2.713M36.358 86.235h-2.773M111.608 42.956v2.757M107.387 44.754l1.93 1.918M115.889 44.874l-1.93 1.918M109.558 51.168l-1.93 1.918M115.648 53.026l-1.93-1.918M111.608 51.947v2.638M108.472 48.83H105.7M117.456 48.83h-2.713"/>
        <path fill="#FFC30F" fill-rule="nonzero" d="M106 97.804l-16.22-.18 2.292-15.585h8.32s4.643 11.45 5.608 15.765z"/>
        <path fill="#FFF" fill-rule="nonzero" d="M115.828 97.804H106c-.965-4.316-5.607-15.765-5.607-15.765h-8.321L89.78 97.624l16.22.18H76.334l4.884-37.405.06-.42.844-6.473.06-.24.965-7.553H89.6c1.386 0 2.653.66 3.497 1.739 1.326 1.858 2.593 3.776 3.678 5.754h-7.296c-1.87 0-3.437 1.499-3.437 3.417v.18c.06 1.798 1.568 3.237 3.437 3.237h10.672c.302 0 .603-.06.965-.12h.06c3.739 8.032 8.502 19.841 14.29 36.925l.362.959z"/>
        <path d="M14.35 97.804h43.112M120.893 97.804h-5.065M120.893 97.804h-6.331M19.777 97.804H14.35"/>
    </g>
</svg>
