<svg xmlns="http://www.w3.org/2000/svg" width="107" height="109" viewBox="0 0 107 109">
    <g fill="none" fill-rule="evenodd" transform="translate(1 1)">
        <path fill="#FFC30F" fill-rule="nonzero" stroke="#000" stroke-linecap="round" stroke-linejoin="round" stroke-width="1.08" d="M53.384 44.8s-5.187-.811-9.456.864c0 0 4.431-9.133 13.562-9.727M67.865 58.04s1.513 5.025.432 9.456c0 0 8.483-5.62 7.835-14.753v-.486"/>
        <path fill="#B91320" fill-rule="nonzero" stroke="#000" stroke-linecap="round" stroke-linejoin="round" stroke-width="1.08" d="M101.04 19.292a105.367 105.367 0 0 1-1.512 3.675L81.697 8.43a38.635 38.635 0 0 1 3.188-1.945l16.156 12.807z"/>
        <path fill="#FFF" fill-rule="nonzero" stroke="#000" stroke-linecap="round" stroke-linejoin="round" stroke-width="1.08" d="M99.528 22.967a46.926 46.926 0 0 1-1.405 2.864 77.92 77.92 0 0 1-13.778 18.914c-1.838 1.892-3.783 3.675-5.836 5.459a79.144 79.144 0 0 1-2.431 1.999c-2.594 2.054-5.242 3.945-8.051 5.674-1.513.919-2.972 1.784-4.485 2.594a23.145 23.145 0 0 0-4.377-5.35l-2.377-1.891c-.756-.54-1.513-.973-2.27-1.405-1.026-.54-2.053-1.027-3.133-1.405.594-1.892 1.243-3.783 2.053-5.675v-.054c.648-1.675 1.405-3.35 2.161-4.971.595-1.297 1.243-2.54 1.891-3.783 0-.054.055-.054.055-.108a77.952 77.952 0 0 1 5.457-8.863A72.62 72.62 0 0 1 79.914 9.62a35.525 35.525 0 0 1 1.783-1.243l17.83 14.591zM101.04 19.292L84.83 6.431C91.316 2.702 98.07.594 104.554.432a49.944 49.944 0 0 1-3.512 18.86z"/>
        <ellipse cx="82.291" cy="25.885" fill="#5A1846" fill-rule="nonzero" stroke="#000" stroke-linecap="round" stroke-linejoin="round" stroke-width="1.08" rx="6.268" ry="6.269"/>
        <path stroke="#000" stroke-linecap="round" stroke-linejoin="round" stroke-width="1.08" d="M62.948 27.02L84.345 44.8"/>
        <path fill="#FFC30F" fill-rule="nonzero" stroke="#000" stroke-linecap="round" stroke-linejoin="round" stroke-width="1.08" d="M70.782 38.801c-.486 3.026-2.485 7.025-5.619 10.808-1.729 2.108-3.728 4-5.998 5.566a15.606 15.606 0 0 1-3.62 1.946c.216-1.297.649-2.594 1.189-3.837 1.135-2.54 2.648-4.864 4.43-6.971 3.189-3.783 6.755-6.485 9.618-7.512z"/>
        <path stroke="#000" stroke-linecap="round" stroke-linejoin="round" stroke-width="1.08" d="M.216 35.342a9.193 9.193 0 0 1 7.727 0c4.214 1.946 3.512 9.025 3.512 9.025s5.565-2.918 7.24 3.026c0 0 6.376-5.35 7.403 3.567 0 0 4.7-.648 5.403 3.188 0 0 6.754-2.323 8.915 5.134 0 0 7.78-1.945 14.049-7.457M84.237 106.892s.054-6.917-8.051-8.106c0 0 .756-3.891-4.377-5.404 0 0 5.187-8.593-5.241-6.377-.324-3.08-2.702-5.512-5.728-5.89 0 0 4.053-10.268-5.24-12.646 0 0 .215-2.432 5.457-11.402"/>
        <path fill="#5A1846" fill-rule="nonzero" d="M36.796 76.089c.81.054 1.567.162 2.323.486.757.27 1.46.703 2.108 1.243a7.078 7.078 0 0 1 1.62 1.946c.217.378.379.756.541 1.134.162.379.216.811.324 1.243l-1.134-.594c.378-.162.81-.324 1.188-.432.378-.108.81-.162 1.189-.217.81-.054 1.675 0 2.485.163.81.162 1.567.486 2.324.918.378.216.702.433 1.026.703l.487.378c.162.108.27.27.432.432l.432.433.379.486.378.486.324.487c.432.702.81 1.459 1.08 2.215.27.811.379 1.676.325 2.54-.054.433-.108.865-.27 1.297-.054.217-.162.433-.27.649l-.163.324c-.054.108-.162.216-.216.324l-.648-1.567c.432.054.81.162 1.243.324.378.108.756.27 1.134.487.757.378 1.46.81 2.053 1.405.649.594 1.081 1.297 1.405 2.107.27.811.433 1.622.379 2.432l-.325-.486c.433.216.81.486 1.19.756.377.27.756.595 1.08.92.324.323.594.702.864 1.134.216.432.324.865.324 1.351a3.8 3.8 0 0 0-1.567-2c-.378-.216-.702-.486-1.134-.648a4.586 4.586 0 0 0-1.189-.486c-.162-.054-.27-.217-.324-.379v-.108a4.748 4.748 0 0 0-.54-1.891c-.325-.54-.703-1.027-1.243-1.46a8.939 8.939 0 0 0-1.73-.972l-.972-.324c-.324-.108-.648-.162-.918-.216l-.649-1.568s.054-.054.054-.108.054-.108.108-.162c.054-.108.108-.27.108-.378.054-.27.109-.54.163-.865 0-.594-.054-1.189-.27-1.729a8.512 8.512 0 0 0-2.054-3.242 7.06 7.06 0 0 0-3.134-2.054 7.266 7.266 0 0 0-1.89-.27c-.325 0-.65.054-.973.054a5.652 5.652 0 0 0-.919.216l-.108.054c-.432.108-.865-.108-.973-.486 0-.054 0-.108-.054-.108a6.706 6.706 0 0 0-.486-2.054c-.27-.648-.648-1.297-1.08-1.783-.487-.54-1.027-1.027-1.676-1.405-.702-.595-1.404-.919-2.16-1.135z" opacity=".6"/>
        <path stroke="#000" stroke-linecap="round" stroke-linejoin="round" stroke-width="1.08" d="M35.175 76.63s5.295.648 6.106 6.106c0 0 4.538-2.054 8.375 2.432 3.836 4.485 1.513 7.457 1.513 7.457s5.781.81 5.781 5.783c0 0 3.458 1.513 3.62 3.62M6.592 62.687s4.539.54 5.241 5.242c0 0 3.89-1.784 7.186 2.107s1.297 6.431 1.297 6.431 4.971.703 4.971 4.972c0 0 2.972 1.297 3.134 3.134"/>
        <path fill="#5A1846" fill-rule="nonzero" d="M7.673 61.606a6.54 6.54 0 0 1 3.836 1.405c.594.432 1.027 1.027 1.405 1.675l.486.973c.108.324.216.703.324 1.08l-1.134-.594c.324-.162.702-.27 1.026-.378.324-.108.703-.162 1.027-.216.702-.054 1.459 0 2.161.162.703.162 1.405.432 2 .81.323.163.594.379.864.595.27.216.54.433.81.703l.379.378.324.378.324.379.27.432a8.04 8.04 0 0 1 .919 1.945c.216.703.324 1.513.27 2.27-.054.378-.108.757-.27 1.135-.054.216-.162.378-.217.54-.054.108-.108.162-.162.27a1.13 1.13 0 0 1-.216.325l-.648-1.621c.378.054.702.162 1.08.27.325.108.649.27.973.432a8.12 8.12 0 0 1 1.783 1.243c.54.54.973 1.135 1.243 1.837.27.703.324 1.405.27 2.162l-.324-.486c.378.216.702.432 1.026.648.325.216.649.486.919.81.27.27.54.65.702.973.163.379.27.757.27 1.135-.215-.702-.756-1.297-1.404-1.675-.324-.216-.649-.378-.973-.54-.324-.163-.648-.27-.972-.433-.162-.054-.27-.216-.325-.378v-.162a4.076 4.076 0 0 0-.486-1.567 3.64 3.64 0 0 0-1.026-1.19 4.684 4.684 0 0 0-1.46-.756c-.486-.216-1.026-.324-1.566-.432l-.649-1.621s0-.054.054-.108.054-.108.054-.162c.054-.109.054-.217.108-.325.054-.216.109-.432.109-.702 0-.487-.055-.973-.217-1.46-.378-1.026-.972-1.945-1.729-2.755a5.813 5.813 0 0 0-2.647-1.73c-.487-.162-1.027-.216-1.567-.216-.27 0-.54 0-.81.054s-.487.108-.757.162l-.108.054c-.432.108-.865-.108-.973-.54v-.108c-.054-.595-.216-1.189-.378-1.73a5.402 5.402 0 0 0-.919-1.513 5.168 5.168 0 0 0-1.404-1.242c-.433-.055-1.027-.379-1.675-.595z" opacity=".6"/>
        <path stroke="#000" stroke-linecap="round" stroke-linejoin="round" stroke-width="1.08" d="M6.592 62.687s4.539.54 5.241 5.242c0 0 3.89-1.784 7.186 2.107s1.297 6.431 1.297 6.431 4.971.703 4.971 4.972c0 0 2.972 1.297 3.134 3.134M87.695 75.548h5.781M90.612 72.684v5.729M54.627 12.862h5.781M57.545 9.997v5.729M16.804 23.67h5.782M19.722 20.806v5.728M33.392 23.291v2.486M29.61 24.913l1.729 1.729M37.228 25.02L35.5 26.75M31.555 30.695l-1.73 1.73M37.012 32.37l-1.729-1.73M33.392 31.397v2.378M30.582 28.587h-2.485M38.633 28.587h-2.431M92.828 50.312v2.485M89.045 51.933l1.73 1.73M96.664 52.04l-1.73 1.73M90.99 57.715l-1.728 1.73M96.448 59.39l-1.73-1.729M92.828 58.418v2.377M90.018 55.608h-2.485M98.069 55.608h-2.432"/>
    </g>
</svg>
