<svg xmlns="http://www.w3.org/2000/svg" width="73" height="58" viewBox="0 0 73 58">
    <path fill="none" fill-rule="evenodd" stroke="#666" stroke-linecap="round" stroke-linejoin="round" stroke-width="2.4" d="M24.464 32.63c1.238-4.15 7.23-5.638 10.393-.39.907 1.507 1.176 3.292.674 4.974-1.704 5.704-9.157 8.19-14.288 3.12-3.381-3.343-4.285-8.314-2.102-12.516 2.783-5.35 9.11-8.168 15.171-6.408 8.572 2.493 13.474 11.37 10.948 19.829-3.156 10.573-14.401 16.618-25.117 13.504C6.751 50.849-.91 36.978 3.038 23.763 7.968 7.242 25.539-2.205 42.28 2.662 62.26 8.47 75.017 28.699 70.77 48.488c-.701 3.266-3.128 6.025-6.393 6.898a9.147 9.147 0 0 1-.787.175c-5.702 1.014-36.367-.045-36.367-.045"/>
</svg>
