<svg xmlns="http://www.w3.org/2000/svg" width="71" height="65" viewBox="0 0 71 65">
    <g fill="none" fill-rule="evenodd" stroke="#666" stroke-linecap="round" stroke-linejoin="round" stroke-width="2.4">
        <path d="M63.522 44.373c-6.714 11.637-17.489 18.756-27.216 19.05-.421.012-.856.012-1.278 0-9.727-.294-20.503-7.413-27.217-19.05C-1.29 28.615.496 10.563 11.794 4.042 18.739.01 33.806 1.31 35.382 15.848 35.666.986 52.595.01 59.54 4.042c11.298 6.52 13.085 24.573 3.982 40.33z"/>
        <path d="M11.08 36.024c-2.65-9.532-.38-18.747 6.308-22.605 1.274-.74 2.91-1.241 4.676-1.419"/>
    </g>
</svg>
