<svg xmlns="http://www.w3.org/2000/svg" width="104" height="112" viewBox="0 0 104 112">
    <g fill="none" fill-rule="evenodd" stroke-linecap="round" stroke-linejoin="round" stroke-width="1.1" transform="translate(0 1)">
        <path fill="#5A1846" fill-rule="nonzero" stroke="#000" d="M27.244 41.857l2.575-1.061-1.03-2.507-2.57 1.055a11.307 11.307 0 0 0-4.318-4.354l1.074-2.578-2.487-1.045-1.074 2.584a11.135 11.135 0 0 0-6.12-.016l-1.058-2.59-2.499 1.028 1.058 2.59a11.19 11.19 0 0 0-4.34 4.315L3.89 38.206l-1.04 2.502 2.564 1.077a11.203 11.203 0 0 0-.011 6.13l-2.587 1.061 1.025 2.518 2.58-1.066a11.256 11.256 0 0 0 4.313 4.354L9.66 57.36l2.488 1.045 1.074-2.579c2 .574 4.117.581 6.12.022l1.058 2.584 2.499-1.033-1.052-2.579a11.277 11.277 0 0 0 4.334-4.326l2.57 1.077 1.046-2.501-2.575-1.078c.574-2.003.582-4.128.022-6.135zm-4.225 5.838a7.263 7.263 0 0 1-6.722 4.483 7.263 7.263 0 0 1-6.7-4.518 7.305 7.305 0 0 1 1.599-7.938 7.245 7.245 0 0 1 7.922-1.554 7.27 7.27 0 0 1 3.918 3.953 7.304 7.304 0 0 1-.017 5.574z"/>
        <path fill="#FFF" fill-rule="nonzero" stroke="#000" d="M99.814 17.189H22.948a2.744 2.744 0 0 0-2.74 2.749v50.556a2.744 2.744 0 0 0 2.74 2.749h76.866c1.513 0 2.74-1.23 2.74-2.749V19.938a2.744 2.744 0 0 0-2.74-2.749zM98.91 27.64H23.852v-6.185H98.91v6.185z"/>
        <path fill="#B91320" fill-rule="nonzero" stroke="#000" d="M23.852 21.455H98.91v6.185H23.852z"/>
        <path fill="#FFF" fill-rule="nonzero" stroke="#000" d="M23.852 27.64H98.91v41.584H23.852zM74.976 88.06a2.517 2.517 0 0 1-2.5 2.509H50.284a2.5 2.5 0 0 1-2.166-1.255 2.516 2.516 0 0 1 0-2.51 2.5 2.5 0 0 1 2.166-1.254h22.192a2.51 2.51 0 0 1 2.5 2.51zM56.908 73.243h8.948V85.55h-8.948zM9.578 92.97h48.733v16.788H9.578z"/>
        <path stroke="#000" d="M15.706 96.272h1.658M20.68 96.272h1.658M25.654 96.272h1.658M30.628 96.272h1.658M35.602 96.272h1.658M40.576 96.272h1.658M45.55 96.272h1.658M50.524 96.272h1.658M15.706 99.6h1.658M20.68 99.6h1.658M25.654 99.6h1.658M30.628 99.6h1.658M35.602 99.6h1.658M40.576 99.6h1.658M45.55 99.6h1.658M50.524 99.6h1.658M15.706 102.927h1.658M20.68 102.927h1.658M25.654 102.927h1.658M30.628 102.927h1.658M35.602 102.927h1.658M40.576 102.927h1.658M45.55 102.927h1.658M50.524 102.927h1.658M15.706 106.254h1.658"/>
        <path stroke="#FFC30F" d="M20.636 106.254h12.48"/>
        <path stroke="#000" d="M35.602 106.254h1.658M40.576 106.254h1.658M45.55 106.254h1.658M50.524 106.254h1.658"/>
        <path fill="#FFC30F" fill-rule="nonzero" stroke="#000" d="M93.644 92.402h3.441a1.666 1.666 0 0 1 1.659 1.664v12.76a1.666 1.666 0 0 1-1.659 1.663H81.037a1.666 1.666 0 0 1-1.658-1.664v-12.76a1.666 1.666 0 0 1 1.658-1.663h3.441"/>
        <rect width="9.82" height="14.58" x="84.15" y="90.71" fill="#FFF" fill-rule="nonzero" stroke="#000" rx="3.063"/>
        <path fill="#FFF" fill-rule="nonzero" stroke="#000" d="M89.06 90.71v3.892M29.893 10.791c4.588 1.93 6.75 7.225 4.828 11.829-1.921 4.604-7.198 6.774-11.788 4.848-4.59-1.926-6.754-7.22-4.835-11.825a9.025 9.025 0 0 1 4.895-4.879 8.982 8.982 0 0 1 6.9.027zm-11.795 4.852c-1.923 4.607.242 9.906 4.835 11.834 4.592 1.929 9.873-.243 11.795-4.85 1.922-4.609-.242-9.907-4.835-11.836-4.592-1.926-9.872.245-11.795 4.852zM31.59 2.348l3.09 1.296-1.334 3.203a13.965 13.965 0 0 1 5.36 5.405l3.193-1.315 1.274 3.114-3.193 1.315c.693 2.493.684 5.13-.026 7.617l3.192 1.339-1.295 3.107-3.192-1.338a13.964 13.964 0 0 1-5.384 5.37l1.31 3.204-3.107 1.286-1.307-3.212a13.893 13.893 0 0 1-7.597-.03l-1.334 3.203-3.09-1.296 1.334-3.202a13.962 13.962 0 0 1-5.352-5.402l-3.205 1.32-1.273-3.123 3.205-1.319a13.94 13.94 0 0 1 .017-7.614L9.692 13.94l1.295-3.107 3.185 1.335a13.905 13.905 0 0 1 5.386-5.359l-1.315-3.215 3.104-1.278 1.315 3.215a13.832 13.832 0 0 1 7.595.018l1.334-3.2zm-1.698 8.443c-4.591-1.925-9.869.249-11.788 4.855-1.919 4.606.247 9.901 4.838 11.826 4.591 1.926 9.869-.247 11.788-4.854 1.915-4.606-.25-9.898-4.838-11.827z"/>
        <path stroke="#000" d="M74.614 24.14H81.3M85.025 24.14h6.685"/>
        <path stroke="#FFC30F" d="M53.404 42.799l-5.668 5.686 5.668 5.687M69.346 42.799l5.668 5.686-5.668 5.687M64.734 42.605l-6.821 11.852"/>
        <rect width="44.226" height="23.19" x="39.266" y="36.936" stroke="#000" rx="5.5"/>
        <path stroke="#000" d="M.523 69.924h5.882M3.464 67.32v5.209M91.029 7.17h5.881M93.97 4.251v5.838M93.97 85.55h5.881M96.91 82.632v5.837M23.212 77.308v2.485M19.4 78.909l1.753 1.76M27.127 79.03l-1.752 1.758M21.345 84.831l-1.755 1.761M26.894 86.523l-1.75-1.755M23.212 85.522v2.433M20.357 82.658H17.87M28.553 82.658h-2.487M67.3 11.22h5.882M70.241 8.301v5.837M52.552.148v2.485M48.74 1.748l1.753 1.76M56.466 1.87l-1.75 1.757M50.685 7.671l-1.755 1.76M56.234 9.363l-1.75-1.756M52.552 8.361v2.433M49.696 5.497H47.21M57.893 5.497h-2.487"/>
    </g>
</svg>
