<svg xmlns="http://www.w3.org/2000/svg" width="121" height="111" viewBox="0 0 121 111">
    <g fill="none" fill-rule="evenodd" stroke-linecap="round" stroke-linejoin="round" transform="translate(1 1)">
        <ellipse cx="21.024" cy="15.797" fill="#FFF" fill-rule="nonzero" stroke="#000" stroke-width="1.1" rx="14.655" ry="14.757"/>
        <path fill="#FFF" fill-rule="nonzero" stroke="#000" stroke-width="1.1" d="M21.024 1.04v3.13M21.024 26.94v3.13M9.89 15.797H6.78M35.61 15.797H32.5"/>
        <ellipse cx="21.023" cy="15.797" stroke="#000" stroke-width="1.1" rx="1" ry="1" transform="rotate(-45 21.023 15.797)"/>
        <path stroke="#000" stroke-width="1.1" d="M21.44 15.377l7.094-7.144M24.987 19.788l-3.547-3.572"/>
        <rect width="80.319" height="54.877" x="24.716" y="23.544" fill="#FFF" fill-rule="nonzero" stroke="#000" stroke-width="1.1" rx="2.75"/>
        <path stroke="#000" stroke-width="1.1" d="M28.269 27.721h73.211v46.764H28.269zM78.136 92.924a2.459 2.459 0 0 1-2.439 2.456H54.051c-1.348 0-2.44-1.1-2.44-2.458a2.449 2.449 0 0 1 2.44-2.457h21.646a2.452 2.452 0 0 1 2.44 2.459z"/>
        <path fill="#FFF" fill-rule="nonzero" stroke="#000" stroke-width="1.1" d="M60.514 78.419h8.728v12.048h-8.728zM32.06 31.417h65.629v10.498H32.06zM32.06 59.825h65.629v10.498H32.06z"/>
        <path fill="#5A1846" fill-rule="nonzero" stroke="#000" stroke-width="1.1" d="M32.108 45.496H52.01V56.71H32.108z"/>
        <path fill="#FFF" fill-rule="nonzero" stroke="#000" stroke-width="1.1" d="M55.339 45.496h19.902V56.71H55.339zM77.74 45.496h19.902V56.71H77.74z"/>
        <path stroke="#000" stroke-width="1.1" d="M78.766 20.536h6.675M111.953 20.536h6.675M98.697.464v6.722M88.74 3.367l3.338 5.821M81.374 10.51l5.78 3.36M108.863 2.808l-3.338 5.821M116.23 9.95l-5.78 3.362"/>
        <rect width="9.828" height="14.645" x="90.409" y="85.601" stroke="#000" stroke-width="1.1" rx="3.063"/>
        <path stroke="#000" stroke-width="1.1" d="M95.323 85.6v3.91M99.908 87.3h3.445a1.67 1.67 0 0 1 1.66 1.672v12.817a1.67 1.67 0 0 1-1.66 1.67h-16.06a1.67 1.67 0 0 1-1.659-1.67V88.972a1.67 1.67 0 0 1 1.66-1.671h3.444"/>
        <path fill="#FFF" fill-rule="nonzero" stroke="#000" stroke-width="1.1" d="M.339 91.779h48.772v16.863H.339zM6.473 95.096h1.659M11.45 95.096h1.66M16.429 95.096h1.659M21.407 95.096h1.66M26.385 95.096h1.66M31.363 95.096h1.66M36.342 95.096H38M41.32 95.096h1.659M6.473 98.438h1.659M11.45 98.438h1.66M16.429 98.438h1.659M21.407 98.438h1.66M26.385 98.438h1.66M31.363 98.438h1.66M36.342 98.438H38"/>
        <path stroke="#000" stroke-width="1.1" d="M41.32 98.438h1.659"/>
        <path fill="#FFF" fill-rule="nonzero" stroke="#000" stroke-width="1.1" d="M6.473 101.78h1.659M11.45 101.78h1.66M16.429 101.78h1.659M21.407 101.78h1.66M26.385 101.78h1.66M31.363 101.78h1.66M36.342 101.78H38M41.32 101.78h1.659M6.473 105.123h1.659"/>
        <path stroke="#B91320" stroke-width="2.1" d="M11.408 105h12.488"/>
        <path fill="#FFF" fill-rule="nonzero" stroke="#000" stroke-width="1.1" d="M26.385 105.123h1.66M31.363 105.123h1.66M36.342 105.123H38M41.32 105.123h1.659"/>
        <path stroke="#000" stroke-width="1.1" d="M43.226 10.118h5.886M46.169 7.186v5.864M7.58 79.7h5.887M10.524 76.768v5.864M111.75 76.84v2.496M107.935 78.447l1.755 1.768M115.667 78.57l-1.752 1.765M109.882 84.396l-1.757 1.77M115.435 86.096l-1.751-1.764M111.75 85.09v2.444M108.893 82.213h-2.488M117.095 82.213h-2.488M72.266 3.944V6.44M68.45 5.552l1.756 1.767M76.184 5.674L74.43 7.44M70.398 11.5l-1.756 1.77M75.952 13.2L74.2 11.438M72.266 12.195v2.444M69.409 9.317H66.92M77.612 9.317h-2.489M6.46 37.078v2.497M2.644 38.686L4.4 40.454M10.377 38.809l-1.752 1.765M4.592 44.635l-1.757 1.77M10.145 46.335l-1.751-1.764M6.46 45.329v2.444M3.602 42.452H1.114M11.805 42.452H9.317"/>
        <path fill="#FFC30F" fill-rule="nonzero" stroke="#000" stroke-width="1.1" d="M103.464 42.125a4.81 4.81 0 0 1-4.623 3.518 4.81 4.81 0 0 1-4.623-3.518h9.246z"/>
        <path fill="#FFF" fill-rule="nonzero" stroke="#000" stroke-width="1.1" d="M110.028 20.45a11.25 11.25 0 0 1-1.546 5.715s-.022.044-.071.127c-.039.05-.077.116-.126.193l-.11.172c-1.026 1.717-4.338 7.753-4.513 14.59h-.033a4.597 4.597 0 0 1-.165.878h-9.246a4.597 4.597 0 0 1-.164-.878h-.033c-.043-1.388-.2-2.77-.472-4.131a34.264 34.264 0 0 0-4.041-10.46c-.044-.066-.077-.12-.11-.17-.05-.078-.088-.144-.12-.194l-.077-.127a11.33 11.33 0 0 1 1.03-12.908 11.138 11.138 0 0 1 12.407-3.404c4.434 1.61 7.39 5.849 7.39 10.596z"/>
        <path fill="#FFF" fill-rule="nonzero" stroke="#000" stroke-width="1.1" d="M90.631 23.168a8.696 8.696 0 0 1 1.246-7.724 8.567 8.567 0 0 1 6.925-3.548"/>
        <path stroke="#000" stroke-width="1.1" d="M93.548 37.114h10.513M94.218 42.125h-.022"/>
    </g>
</svg>
