<svg xmlns="http://www.w3.org/2000/svg" width="189" height="166" viewBox="0 0 189 166">
    <g fill="none" fill-rule="evenodd" transform="translate(1 1)">
        <path fill="#FFF" fill-rule="nonzero" stroke="#000" stroke-linecap="round" stroke-linejoin="round" stroke-width="1.872" d="M0 98.74h184.567v9.373H0z"/>
        <path fill="#FFF" fill-rule="nonzero" stroke="#000" stroke-linecap="round" stroke-linejoin="round" stroke-width="1.872" d="M15.583 107.835h6.533v55.885h-6.533zM162.326 107.835h6.533v55.885h-6.533zM69.13 24.758l-5.638 8.082-12.406 17.817-5.352 7.683L36.8 38.01v-.016L26.573 27.796a6.552 6.552 0 0 1 0-9.226l1.083-1.082a6.572 6.572 0 0 1 9.238 0l7.28 7.27H69.13z"/>
        <path fill="#FFC30F" fill-rule="nonzero" stroke="#000" stroke-linecap="round" stroke-linejoin="round" stroke-width="1.872" d="M65.888 39.893c0 3.689-1.823 7.14-4.872 9.22a11.19 11.19 0 0 1-10.37 1.185L63.052 32.48a11.086 11.086 0 0 1 2.836 7.413z"/>
        <rect width="10.3" height="10.288" x="7.792" y="55.866" fill="#5A1846" fill-rule="nonzero" stroke="#000" stroke-linecap="round" stroke-linejoin="round" stroke-width="1.872" rx="3.182"/>
        <path fill="#FFF" fill-rule="nonzero" stroke="#000" stroke-linecap="round" stroke-linejoin="round" stroke-width="1.872" d="M29.156 29.882l-16.17 24.87M33.157 33.78L15.583 55.287M32.568 88.477l-.103-.13M32.285 89.134h-5.528L12.987 66.26h1.964z"/>
        <path fill="#FFF" fill-rule="nonzero" stroke="#000" stroke-linecap="round" stroke-linejoin="round" stroke-width="1.872" d="M47.71 91.692a3.35 3.35 0 0 1-3.35 3.345H17.635a3.347 3.347 0 0 1-3.35-3.345c0-1.848 1.5-3.346 3.35-3.346H44.36a3.356 3.356 0 0 1 3.349 3.346zM51.207 118.228c-.195 0-.374.014-.561.028v-.028h.561zM51.207 132.548h-.561v-.028c.185.017.366.028.561.028z"/>
        <path fill="#FFF" fill-rule="nonzero" stroke="#000" stroke-linecap="round" stroke-linejoin="round" stroke-width="1.872" d="M123.666 131.708h-72.76c-.195 0-.374-.014-.56-.028a6.737 6.737 0 0 1-6.193-6.712 6.737 6.737 0 0 1 6.192-6.712c.182-.014.362-.028.561-.028h72.76v13.48z"/>
        <path fill="#FFC30F" fill-rule="nonzero" stroke="#000" stroke-linecap="round" stroke-linejoin="round" stroke-width="1.872" d="M139.948 124.968l-15.281-6.74v13.48z"/>
        <path fill="#FFF" fill-rule="nonzero" stroke="#000" stroke-linecap="round" stroke-linejoin="round" stroke-width="1.872" d="M62.333 118.228v13.452M55.84 118.228v13.452M117.566 126.024h-48.74"/>
        <rect width="90.366" height="61.239" x="80.514" y="15.591" fill="#FFF" fill-rule="nonzero" stroke="#000" stroke-linecap="round" stroke-linejoin="round" stroke-width="1.872" rx="3.087"/>
        <path fill="#FFF" fill-rule="nonzero" stroke="#000" stroke-linecap="round" stroke-linejoin="round" stroke-width="1.872" d="M85.708 20.787h78.129v49.5H85.708zM140.277 92.387a2.755 2.755 0 0 1-2.745 2.741h-24.355a2.745 2.745 0 0 1-2.419-1.355 2.739 2.739 0 0 1 0-2.771 2.745 2.745 0 0 1 2.42-1.356h24.354a2.748 2.748 0 0 1 2.745 2.74z"/>
        <path fill="#FFF" fill-rule="nonzero" stroke="#000" stroke-linecap="round" stroke-linejoin="round" stroke-width="1.872" d="M120.771 76.654h9.82v13.445h-9.82z"/>
        <path stroke="#000" stroke-linecap="round" stroke-linejoin="round" stroke-width="1.872" d="M63.632 0v4.224M57.139 2.598l2.994 2.991M70.518 2.598l-2.99 2.986M60.135 12.992l-2.996 2.993M70.515 15.976l-2.987-2.984M63.632 14.291v4.135M58.786 9.094h-4.244M73.072 9.094h-4.246M5.194 25.984h10.041M10.389 20.787v9.922M179.208 115.63v3.656M174.014 118.228l2.53 2.589M184.331 118.228l-2.525 2.585M176.544 126.024l-2.53 2.59M184.33 128.606l-2.524-2.582M179.208 127.323v3.579M175.001 123.425h-3.584M186.69 123.425h-3.586"/>
        <path fill="#FFF" fill-rule="nonzero" stroke="#000" stroke-linecap="round" stroke-linejoin="round" stroke-width="1.872" d="M129.836 144.217v17.58h-77.91v-17.58z"/>
        <path stroke="#000" stroke-linecap="round" stroke-linejoin="round" stroke-width="1.872" d="M119.472 144.213v10.714M107.785 144.213v10.714M96.097 144.213v10.714M84.41 144.213v10.714M72.722 144.213v10.714M61.035 144.213v10.714"/>
        <path fill="#B91320" fill-rule="nonzero" stroke="#000" stroke-linecap="round" stroke-linejoin="round" stroke-width="1.872" d="M140.74 29.882v17.352h-6.024c-.3-6.29-5.09-11.451-11.348-12.222v-5.13h17.372z"/>
        <path stroke="#000" stroke-linecap="round" stroke-linejoin="round" stroke-width="1.872" d="M134.968 48.011c-.002 7.14-5.799 12.926-12.947 12.923-7.148-.003-12.94-5.793-12.938-12.932.003-7.14 5.8-12.926 12.948-12.923.525-.002 1.05.029 1.571.093 6.257.771 11.049 5.932 11.348 12.222.01.206.018.413.018.617zM93.218 67.884a7.224 7.224 0 0 1 8.742 3.969 7.208 7.208 0 0 1-2.934 9.133 7.227 7.227 0 0 1-9.422-1.854"/>
        <path fill="#FFF" fill-rule="nonzero" stroke="#000" stroke-linecap="round" stroke-linejoin="round" stroke-width="1.872" d="M85.34 85.354a20.814 20.814 0 0 0-.555 9.659H69.102a20.588 20.588 0 0 0-.555-9.66c-1.59-4.895-8.88-13.092-7.286-28.188h31.365c1.595 15.096-5.69 23.293-7.285 28.189z"/>
        <path stroke="#000" stroke-linecap="round" stroke-linejoin="round" stroke-width="1.872" d="M73.437 88.338a13.886 13.886 0 0 0-.618-4.707c-.982-3.017-5.026-7.81-5.291-16.072"/>
        <path fill="#5A1846" fill-rule="nonzero" d="M57.139 119.528h5.177v11.625h-5.177z"/>
    </g>
</svg>
