<svg xmlns="http://www.w3.org/2000/svg" width="60" height="56" viewBox="0 0 60 56">
    <g fill="none" fill-rule="evenodd" stroke="#000" stroke-linecap="round" stroke-linejoin="round" stroke-width="2">
        <path d="M16.805 37.446h25.824v17.261H16.805zM30.115 17.949H12.364C6.184 17.928 1.181 12.92 1.165 6.74a10.983 10.983 0 0 1 .581-3.552 19.919 19.919 0 0 1 8.523-1.9c9.783 0 18.152 7.026 19.846 16.661z"/>
        <path d="M29.885 17.949h17.751c6.18-.021 11.183-5.029 11.199-11.209a10.983 10.983 0 0 0-.581-3.552 19.919 19.919 0 0 0-8.523-1.9c-9.783 0-18.152 7.026-19.846 16.661zM30.115 17.949v19.497"/>
    </g>
</svg>
