<?xml version="1.0" encoding="UTF-8"?>
<svg width="127px" height="72px" viewBox="0 0 127 72" version="1.1" xmlns="http://www.w3.org/2000/svg" xmlns:xlink="http://www.w3.org/1999/xlink">
    <!-- Generator: Sketch 46.2 (44496) - http://www.bohemiancoding.com/sketch -->
    <title>Artboard</title>
    <desc>Created with Sketch.</desc>
    <defs></defs>
    <g id="Programmes" stroke="none" stroke-width="1" fill="none" fill-rule="evenodd">
        <g id="Artboard" fill-rule="nonzero" fill="#4A4A4A">
            <g id="Group" transform="translate(64.500000, 37.500000) rotate(90.000000) translate(-64.500000, -37.500000) translate(49.000000, 2.000000)">
                <path d="M0.622119816,46.6431786 L11.4746544,46.8513284 C11.5437788,46.8513284 11.6129032,46.8513284 11.6820276,46.7819452 L19.1474654,42.7577151 C19.562212,42.5495652 19.3548387,41.9251157 18.9400922,41.9251157 L5.04608295,41.9251157 L5.04608295,34.5704883 L5.04608295,34.5704883 C5.52995392,29.3667425 9.88479263,25.3425124 15.1382488,25.3425124 C20.4608295,25.3425124 24.7465438,29.3667425 25.2304147,34.5704883 L25.2995392,38.6641017 C25.2995392,38.8028682 25.3686636,40.1905338 25.2304147,40.2599171 L15.2764977,45.5330462 L0.760368664,53.5121231 C0.483870968,53.7202729 0.483870968,54.0671893 0.760368664,54.2753391 L15.0691244,62.6013325 L29.3778802,70.9273258 C29.6543779,71.1354756 30,70.8579425 30,70.5804094 L30,64.7522141 C30,64.6134475 29.9308756,64.4746809 29.7926267,64.4052977 L21.4285714,59.5484682 L12.4423963,54.3447224 C12.1658986,54.1365726 12.1658986,53.7896562 12.4423963,53.5815064 L21.4285714,48.3777605 L29.7926267,43.5209311 C29.9308756,43.4515478 30,43.3127813 30,43.1740147 L30,40.4680669 L30,41.3006662 L30,34.6398716 L30,34.6398716 C29.7926267,26.5220281 23.156682,20 15,20 C6.84331797,20 0.207373272,26.5220281 0,34.7092549 L0,46.2962622 C0.207373272,46.4350288 0.414746544,46.6431786 0.622119816,46.6431786 Z" id="Shape"></path>
                <path d="M1.00053087,14.9872512 C1.00053087,18.3713484 2.17821113,21.4101296 4.04864449,23.8964052 C4.18719511,24.0345316 4.39502104,24.0345316 4.53357166,23.8964052 C5.43415068,22.7913938 6.40400502,21.8245089 7.58168528,21.0648136 C7.78951121,20.9266872 7.85878652,20.6504343 7.7202359,20.4432447 C6.61183095,18.8547909 5.98835316,16.9900842 5.91907785,14.9181879 C5.84980254,9.4621944 10.214147,4.90402257 15.7561718,4.83495936 C21.2981966,4.76589615 25.8010917,9.18594156 25.870367,14.7109983 C25.870367,16.7138314 25.3161645,18.5785381 24.2770349,20.1669919 C24.1384843,20.3741815 24.2077596,20.6504343 24.4155855,20.7885608 C25.5932658,21.5482561 26.6323954,22.4460778 27.6022498,23.5510891 C27.8100757,23.7582788 28.1564522,23.7582788 28.2950028,23.4820259 C30.0268856,20.9957504 31.0660152,18.0260324 30.9967399,14.7800615 C30.9274646,6.5615396 24.1384843,-0.0685285136 15.8947224,0.000534695921 C7.65096059,0.0695979054 0.93125556,6.90685565 1.00053087,14.9872512 Z" id="Shape"></path>
            </g>
        </g>
    </g>
</svg>