<?xml version="1.0" encoding="UTF-8"?>
<svg width="73px" height="58px" viewBox="0 0 73 58" version="1.1" xmlns="http://www.w3.org/2000/svg" xmlns:xlink="http://www.w3.org/1999/xlink">
    <!-- Generator: Sketch 46.2 (44496) - http://www.bohemiancoding.com/sketch -->
    <title>Page 1</title>
    <desc>Created with Sketch.</desc>
    <defs></defs>
    <g id="Home-Page" stroke="none" stroke-width="1" fill="none" fill-rule="evenodd" stroke-linecap="round" stroke-linejoin="round">
        <g id="Desktop-HD-Copy-12" transform="translate(-146.000000, -1380.000000)" stroke="#743863" stroke-width="2.4">
            <path d="M170.463504,1413.24788 C171.70198,1409.098 177.693983,1407.6091 180.856563,1412.85719 C181.764296,1414.36396 182.033477,1416.14945 181.531327,1417.83132 C179.826914,1423.53561 172.37433,1426.02148 167.242983,1420.95087 C163.861919,1417.60858 162.957808,1412.63683 165.141436,1408.43574 C167.923783,1403.08521 174.25015,1400.26702 180.312164,1402.0275 C188.883722,1404.52052 193.785722,1413.39677 191.260486,1421.85612 C188.103941,1432.42972 176.858675,1438.47467 166.143322,1435.35988 C152.75064,1431.4661 145.090437,1417.59548 149.037627,1404.37997 C153.968596,1387.85909 171.539022,1378.41229 188.281384,1383.27922 C208.259958,1389.08714 221.016502,1409.31598 216.769954,1429.1053 C216.068634,1432.37136 213.642379,1435.13 210.377196,1436.00309 C210.123707,1436.07098 209.861768,1436.13054 209.590173,1436.17819 C203.887872,1437.19183 173.222915,1436.13292 173.222915,1436.13292" id="Page-1"></path>
        </g>
    </g>
</svg>