<?xml version="1.0" encoding="UTF-8"?>
<svg width="77px" height="72px" viewBox="0 0 77 72" version="1.1" xmlns="http://www.w3.org/2000/svg" xmlns:xlink="http://www.w3.org/1999/xlink">
    <!-- Generator: Sketch 46.2 (44496) - http://www.bohemiancoding.com/sketch -->
    <title>Artboard 2 Copy 2</title>
    <desc>Created with Sketch.</desc>
    <defs></defs>
    <g id="Home-Page" stroke="none" stroke-width="1" fill="none" fill-rule="evenodd" stroke-linecap="round" stroke-linejoin="round">
        <g id="Artboard-2-Copy-2" stroke="#5E1D4A" stroke-width="2.52">
            <g id="Page-1" transform="translate(3.000000, 3.000000)">
                <path d="M64.5986013,44.491237 C57.5487908,56.7100062 46.2350224,64.1852389 36.0210645,64.4944639 C35.5788855,64.5069831 35.1229276,64.5069831 34.6794961,64.4944639 C24.4655382,64.1852389 13.1517697,56.7100062 6.10195922,44.491237 C-3.45561973,27.9458216 -1.57917763,8.99045427 10.2832434,2.14368697 C17.5760645,-2.08906496 33.3968013,-0.724468804 35.0515276,14.5402293 C35.349654,-1.06499188 53.1244961,-2.08906496 60.4173171,2.14368697 C72.2797382,8.99045427 74.1561803,27.9458216 64.5986013,44.491237 Z" id="Stroke-1"></path>
                <path d="M9.53427356,35.7249981 C6.75217882,25.717125 9.13593672,16.0410115 16.1569367,11.9897885 C17.4947472,11.2135962 19.2133578,10.6865365 21.0672525,10.5" id="Stroke-3"></path>
            </g>
        </g>
    </g>
</svg>