<?xml version="1.0" encoding="UTF-8"?>
<svg width="117px" height="89px" viewBox="0 0 117 89" version="1.1" xmlns="http://www.w3.org/2000/svg" xmlns:xlink="http://www.w3.org/1999/xlink">
    <!-- Generator: Sketch 46.2 (44496) - http://www.bohemiancoding.com/sketch -->
    <title>Artboard 5</title>
    <desc>Created with Sketch.</desc>
    <defs></defs>
    <g id="Home-Page" stroke="none" stroke-width="1" fill="none" fill-rule="evenodd" stroke-linecap="round" stroke-linejoin="round">
        <g id="Artboard-5" stroke="#5A1846" stroke-width="2.4">
            <path d="M44.5972977,41.4668559 C45.8431502,37.2879018 51.870842,35.7885641 55.0522587,41.0734297 C55.9653981,42.5907595 56.2361828,44.3887653 55.7310418,46.0824172 C54.0164768,51.8266799 46.5195048,54.3299742 41.3575955,49.2238296 C37.9563939,45.8581163 37.0468973,40.8515277 39.2435319,36.6209964 C42.0424501,31.2329763 48.4064977,28.3950299 54.5046178,30.1678468 C63.1272285,32.6783379 68.0584244,41.6167897 65.5181482,50.135427 C62.3428029,60.7831238 51.0305594,66.870435 40.2513853,63.7338205 C26.7789356,59.8127524 19.0731072,45.8449221 23.0438067,32.5368004 C28.0041453,15.9001489 45.6792222,6.38715088 62.5213022,11.2881861 C82.6188701,17.1368027 95.4513936,37.5074049 91.1795524,57.4354025 C90.474055,60.7243498 88.0333498,63.5023227 84.7487192,64.3815344 C84.4937202,64.4499042 84.2302212,64.5098777 83.9570079,64.5578565 C78.2207436,65.5786056 47.3731445,64.5122766 47.3731445,64.5122766" id="Page-1"></path>
        </g>
    </g>
</svg>