<?xml version="1.0" encoding="UTF-8"?>
<svg width="83px" height="67px" viewBox="0 0 83 67" version="1.1" xmlns="http://www.w3.org/2000/svg" xmlns:xlink="http://www.w3.org/1999/xlink">
    <!-- Generator: Sketch 46.2 (44496) - http://www.bohemiancoding.com/sketch -->
    <title>Artboard 2</title>
    <desc>Created with Sketch.</desc>
    <defs></defs>
    <g id="Home-Page" stroke="none" stroke-width="1" fill="none" fill-rule="evenodd" stroke-linecap="round" stroke-linejoin="round">
        <g id="Artboard-2" stroke="#5A1846" stroke-width="2.52">
            <path d="M28.711476,37.4006574 C30.0187562,33.0323706 36.3436483,31.4651034 39.6819274,36.9894065 C40.6400899,38.5754808 40.9242259,40.4549476 40.3941785,42.2253325 C38.5950754,48.2298462 30.7284591,50.8465554 25.3120376,45.5090705 C21.743137,41.9908693 20.7887969,36.757451 23.0937384,32.3352501 C26.0306595,26.7031191 32.7084918,23.7365959 39.1072847,25.5897325 C48.1550402,28.2139646 53.3293728,37.5573841 50.6638461,46.4619689 C47.3319378,57.592073 35.4619349,63.9551774 24.1512848,60.6764546 C10.0145649,56.5777377 1.92879437,41.9770774 6.09527243,28.0660146 C11.3001846,10.6756188 29.8467457,0.731622442 47.5192382,5.85470515 C68.6077331,11.9683007 82.0729748,33.2618185 77.5905069,54.092679 C76.8502244,57.5306361 74.2891783,60.4344686 70.8425963,61.353514 C70.5750243,61.4249814 70.2985333,61.4876721 70.011849,61.5378246 C63.9927535,62.6048201 31.6241881,61.4901797 31.6241881,61.4901797" id="Page-1"></path>
        </g>
    </g>
</svg>