<?xml version="1.0" encoding="UTF-8"?>
<svg width="71px" height="65px" viewBox="0 0 71 65" version="1.1" xmlns="http://www.w3.org/2000/svg" xmlns:xlink="http://www.w3.org/1999/xlink">
    <!-- Generator: Sketch 46.2 (44496) - http://www.bohemiancoding.com/sketch -->
    <title>Group 8</title>
    <desc>Created with Sketch.</desc>
    <defs></defs>
    <g id="Home-Page" stroke="none" stroke-width="1" fill="none" fill-rule="evenodd" stroke-linecap="round" stroke-linejoin="round">
        <g id="Desktop-HD-Copy-12" transform="translate(-510.000000, -1376.000000)" stroke-width="2.4" stroke="#743863">
            <g id="Page-1" transform="translate(512.000000, 1378.000000)">
                <g id="Group-8">
                    <path d="M61.5224774,42.3726066 C54.8083722,54.0095297 44.0333546,61.1287989 34.3057757,61.4232989 C33.8846529,61.435222 33.4504073,61.435222 33.0280915,61.4232989 C23.3005125,61.1287989 12.525495,54.0095297 5.81138973,42.3726066 C-3.29106641,26.6150682 -1.50397869,8.5623374 9.79356517,2.04160663 C16.739109,-1.98958567 31.8064774,-0.689970289 33.3824073,13.8478374 C33.6663371,-1.01427798 50.5947582,-1.98958567 57.540302,2.04160663 C68.8378459,8.5623374 70.6249336,26.6150682 61.5224774,42.3726066 Z" id="Stroke-1"></path>
                    <path d="M9.08026053,34.0238077 C6.4306465,24.4925 8.70089211,15.2771538 15.3875588,11.4188462 C16.661664,10.6796154 18.298436,10.1776538 20.06405,10" id="Stroke-3"></path>
                </g>
            </g>
        </g>
    </g>
</svg>